<?xml version="1.0" encoding="UTF-8"?>
<!DOCTYPE svg PUBLIC "-//W3C//DTD SVG 1.1//EN" "http://www.w3.org/Graphics/SVG/1.1/DTD/svg11.dtd">
<!-- Creator: CorelDRAW -->
<svg xmlns="http://www.w3.org/2000/svg" xml:space="preserve" width="792.99mm" height="462.42mm" version="1.1" style="shape-rendering:geometricPrecision; text-rendering:geometricPrecision; image-rendering:optimizeQuality; fill-rule:evenodd; clip-rule:evenodd"
viewBox="0 0 79299 46242"
 xmlns:xlink="http://www.w3.org/1999/xlink"
 xmlns:xodm="http://www.corel.com/coreldraw/odm/2003">
 <defs>
  <style type="text/css">
   <![CDATA[
    .fil17 {fill:white;fill-rule:nonzero}
    .fil13 {fill:url(#id0);fill-rule:nonzero}
    .fil14 {fill:url(#id1);fill-rule:nonzero}
    .fil16 {fill:url(#id2);fill-rule:nonzero}
    .fil8 {fill:url(#id3);fill-rule:nonzero}
    .fil15 {fill:url(#id4);fill-rule:nonzero}
    .fil11 {fill:url(#id5);fill-rule:nonzero}
    .fil9 {fill:url(#id6);fill-rule:nonzero}
    .fil2 {fill:url(#id7);fill-rule:nonzero}
    .fil4 {fill:url(#id8);fill-rule:nonzero}
    .fil1 {fill:url(#id9);fill-rule:nonzero}
    .fil3 {fill:url(#id10);fill-rule:nonzero}
    .fil5 {fill:url(#id11);fill-rule:nonzero}
    .fil10 {fill:url(#id12);fill-rule:nonzero}
    .fil7 {fill:url(#id13);fill-rule:nonzero}
    .fil0 {fill:url(#id14);fill-rule:nonzero}
    .fil12 {fill:url(#id15);fill-rule:nonzero}
    .fil6 {fill:url(#id16);fill-rule:nonzero}
   ]]>
  </style>
  <linearGradient id="id0" gradientUnits="userSpaceOnUse" x1="25980.01" y1="14717.29" x2="53386.44" y2="14717.29">
   <stop offset="0" style="stop-opacity:1; stop-color:#0A6F37"/>
   <stop offset="1" style="stop-opacity:1; stop-color:#95CE25"/>
  </linearGradient>
  <linearGradient id="id1" gradientUnits="userSpaceOnUse" xlink:href="#id0" x1="25980.03" y1="14717.29" x2="53386.44" y2="14717.29">
  </linearGradient>
  <linearGradient id="id2" gradientUnits="userSpaceOnUse" xlink:href="#id0" x1="25979.98" y1="14717.29" x2="53386.44" y2="14717.29">
  </linearGradient>
  <linearGradient id="id3" gradientUnits="userSpaceOnUse" xlink:href="#id0" x1="25980.01" y1="14717.29" x2="53386.47" y2="14717.29">
  </linearGradient>
  <linearGradient id="id4" gradientUnits="userSpaceOnUse" xlink:href="#id0" x1="25980.03" y1="14717.29" x2="53386.44" y2="14717.29">
  </linearGradient>
  <linearGradient id="id5" gradientUnits="userSpaceOnUse" xlink:href="#id0" x1="25979.95" y1="14717.32" x2="53386.47" y2="14717.32">
  </linearGradient>
  <linearGradient id="id6" gradientUnits="userSpaceOnUse" xlink:href="#id0" x1="25980.17" y1="14717.29" x2="53386.25" y2="14717.29">
  </linearGradient>
  <linearGradient id="id7" gradientUnits="userSpaceOnUse" xlink:href="#id0" x1="25979.95" y1="14717.23" x2="53386.47" y2="14717.23">
  </linearGradient>
  <linearGradient id="id8" gradientUnits="userSpaceOnUse" xlink:href="#id0" x1="25980.01" y1="14717.29" x2="53386.44" y2="14717.29">
  </linearGradient>
  <linearGradient id="id9" gradientUnits="userSpaceOnUse" xlink:href="#id0" x1="25979.98" y1="14717.29" x2="53386.5" y2="14717.29">
  </linearGradient>
  <linearGradient id="id10" gradientUnits="userSpaceOnUse" xlink:href="#id0" x1="25979.98" y1="14717.18" x2="53386.47" y2="14717.18">
  </linearGradient>
  <linearGradient id="id11" gradientUnits="userSpaceOnUse" xlink:href="#id0" x1="25980.01" y1="14717.29" x2="53386.44" y2="14717.29">
  </linearGradient>
  <linearGradient id="id12" gradientUnits="userSpaceOnUse" xlink:href="#id0" x1="25980.03" y1="14717.29" x2="53386.44" y2="14717.29">
  </linearGradient>
  <linearGradient id="id13" gradientUnits="userSpaceOnUse" xlink:href="#id0" x1="25980.03" y1="14717.29" x2="53386.39" y2="14717.29">
  </linearGradient>
  <linearGradient id="id14" gradientUnits="userSpaceOnUse" xlink:href="#id0" x1="25979.92" y1="14717.29" x2="53386.47" y2="14717.29">
  </linearGradient>
  <linearGradient id="id15" gradientUnits="userSpaceOnUse" xlink:href="#id0" x1="25979.98" y1="14717.29" x2="53386.44" y2="14717.29">
  </linearGradient>
  <linearGradient id="id16" gradientUnits="userSpaceOnUse" xlink:href="#id0" x1="25980.01" y1="14717.29" x2="53386.41" y2="14717.29">
  </linearGradient>
 </defs>
 <g id="Слой_x0020_1">
  <metadata id="CorelCorpID_0Corel-Layer"/>
  <g id="_2103147971984">
   <g>
    <path class="fil0" d="M40773.21 16691.54c2.09,-127.12 6.64,-316.18 24.85,-524.76 19.11,-218.89 53.23,-474 114.94,-740.31 63.77,-275.2 157.16,-559.52 281.56,-838.65 115.38,-258.92 257.37,-512.96 427.01,-750.44 172.22,-241.08 372.17,-464.74 589.63,-667.2 227.47,-211.81 476.32,-402.04 734.36,-566.27 245.24,-156.06 496.54,-287.25 746.72,-394.07 266.36,-113.7 531.73,-200.78 787.67,-261.6 293.48,-69.78 1163.3,-180.25 1423.27,-65.48 247.41,109.2 364.34,707.63 383.31,959.16 15.31,202.98 18.21,438.87 -2.62,699.77 -17.4,218.43 -51.77,456.08 -109.72,708.9 -64.96,283.33 -159.18,583.07 -276.88,871.78 -110.77,271.77 -244.16,537.53 -395.56,774.93 -156.78,245.87 -330.52,457.05 -511.57,640.75 -181.17,183.81 -369.33,340.39 -555.13,477.12 -184.12,135.49 -368.37,252.93 -553.81,354.27 -184.58,100.84 -369.11,184.72 -554.74,253.68 -368.8,136.97 -733.31,212.66 -915.82,250.59l-6.9 1.4c0.14,0.78 -5.43,1.19 -6.48,1.36 -532.48,46.53 -527.77,37.4 -204.03,-721.79 204.03,-451.55 612.17,-1354.74 961.01,-2021.67 164.58,-314.63 313.34,-571.37 439.22,-776.25 -127.98,81.2 -266.28,179.31 -407.25,297.56 -201.66,169.11 -408.67,377.66 -606.57,596.03 -198.05,218.51 -392.97,454.18 -566.25,672.52 -305.78,385.33 -533.23,703.96 -668.13,892.96l-47.67 66.67 0.42 0.3c-132.87,185.33 -210.82,274.17 -381.36,197.44 -137.53,-61.87 -147.01,-173.5 -143.48,-388.7zm460.98 -487.13l-1.87 22.06c121.47,-165.38 269.01,-361.33 439.03,-575.56 172.45,-217.3 371.65,-457.57 585.06,-693.04 213.51,-235.64 435.5,-459.48 649.32,-638.79 408.28,-342.44 788.17,-529.7 1002.1,-630.02 55.39,-21.9 113.31,-45.48 169.03,-63.16 98.88,-31.36 190.79,-43.99 256.44,-36.24 65.64,7.72 104.98,35.85 119.51,84.01 14.57,48.13 4.31,116.29 -9.57,163.32 -13.87,47 -31.33,72.85 -54.12,106.36l-5.4 8 -1.11 1.65 -1.1 1.63 -0.03 0.05 -99.51 145.83c-135.68,198.54 -407.1,595.73 -741.15,1234.35 -319.08,610.1 -1069.05,1756.63 -1027.32,2047.79 21.52,150.33 1008.89,-314.3 1159.05,-396.33 165.53,-90.47 333.23,-197.66 504.22,-323.49 169.35,-124.62 339.84,-266.31 502.11,-430.95 162.35,-164.72 317.12,-352.45 455.14,-568.92 134.22,-210.48 255.14,-452.58 357.94,-704.82 109.72,-269.15 196.94,-545.83 256.35,-805.03 87.99,-383.86 291.97,-1709.59 -0.44,-1894.51 -182.84,-115.6 -578.57,-24.41 -1167.02,115.52 -235.33,55.93 -477.15,135.07 -717.51,237.65 -231.47,98.86 -461.65,218.73 -683.44,359.87 -233.82,148.81 -461.13,322.91 -671.08,518.39 -197.28,183.64 -377.56,385.02 -531.49,600.5 -152.76,213.87 -280.52,442.4 -384.26,675.19 -111.96,251.23 -196.3,508.38 -254.2,758.22 -55.52,239.61 -86.8,475.53 -104.68,680.47z"/>
    <path class="fil1" d="M39350.44 15645.8c-235.06,-861.21 -981,-1714.06 -1681.22,-2259.62 -292.13,-227.59 -617.19,-440.39 -978.05,-633.99 -343.49,-184.28 -717.45,-349.97 -1123.88,-493.01 -383.62,-135.02 -800.12,-251.19 -1204.43,-346.13 -480.07,-112.73 -936.34,-194.21 -1297.68,-241.41 -332.17,-43.38 -584.47,-58.44 -775.18,-58.75 -407.06,10.79 -379.04,-52.63 -449.35,189.3l-0.13 0.75c-42.76,263.22 -122.53,755.13 -22.1,1395.84 49.79,317.75 145.28,678.18 270.97,1042.82 129.73,376.36 289.29,750.36 462.07,1080.8 169.55,324.23 354.05,611.06 557.08,869.76 201.94,257.26 420.78,484.49 660.2,691.11 238.92,206.21 499.19,393.11 776.5,559.71 283.39,170.24 584.95,319.57 900.3,447.08 294.61,119.08 602.71,219.45 898.17,299.5 332.48,90.05 644.72,153.47 901.37,188.39 94.28,12.82 755.41,95.43 797.47,-15.42 157.78,-415.42 -1539.41,-2312.01 -1805,-2618.7 -298.94,-345.11 -599.24,-660.6 -852.89,-905.2 -235.61,-227.23 -428.66,-391.32 -581.52,-511.11 -146.71,-115.02 -265.37,-195.01 -344.45,-248.27l-52.41 -35.34c-51.06,-44.93 -125.86,-105.64 -171.62,-169.44 -50.78,-70.83 -65.73,-145.52 -56.13,-196.71 9.63,-51.2 43.75,-78.95 102.88,-89.54 59.14,-10.62 143.24,-4.11 201.38,5.66 33.08,5.54 57.73,12.08 84.35,20.27l134.85 54.39c10.73,3.37 21.08,7.56 31.01,12.47 223.25,90.08 650.92,264.93 1123.8,557 244.29,150.88 496.46,329.92 760.42,545.75 262.48,214.54 542.05,469.79 843.78,775.08 335.65,339.57 687.86,729.83 1003.13,1079.14 250.42,277.48 537.33,653.62 702.14,821.33 717.37,729.86 248.16,-1579.05 184.17,-1813.51zm513.73 1581.48c-20.31,235.28 -63.53,426.73 -117.89,555.05 -92.98,219.44 -215.17,317.91 -448.47,244.65 -125.53,-39.41 -280.27,-159.7 -502.5,-385.82 -181.13,-184.31 -407.15,-434.76 -656.16,-710.7 -316.07,-350.18 -669.16,-741.42 -989.45,-1065.46 -285.7,-289.04 -554.16,-533.78 -809.57,-742.58 -90.97,-74.36 -179.62,-143.67 -266.18,-208.3 159.73,167.89 326.91,351.48 493.71,544.07 267.46,308.84 534.16,641.02 767.84,968.86 292.02,409.61 1628.75,2169.07 873.29,2401.65 -79.6,8.83 -199.09,22.12 -374.38,24.47 -169.38,2.26 -383.97,-6.68 -647.47,-42.51 -277.65,-37.76 -609.38,-104.76 -956.1,-198.65 -309.25,-83.77 -634.07,-189.77 -947.82,-316.59 -336.23,-135.93 -658.4,-295.55 -961.86,-477.87 -299.11,-179.67 -579.95,-381.41 -838.07,-604.17 -262.12,-226.21 -500.29,-473.18 -718.34,-750.97 -216.88,-276.35 -415.53,-585.68 -599.83,-938.16 -185.72,-355.18 -354.72,-749.86 -489.43,-1140.71 -131.9,-382.65 -233.29,-768.59 -288.07,-1118.06 -110,-701.84 -26.51,-1233.19 20.41,-1522.29 0.8,-7.2 1.98,-14.42 3.53,-21.65 25.82,-158.77 41.54,-250.06 95.02,-333.86 73.7,-115.35 159.7,-151.26 317.45,-178.16 100.34,-17.13 249.43,-33.15 466.17,-32.76 208.44,0.33 480.22,16.27 831.62,62.17 379.62,49.59 851.97,133.55 1340.43,248.24 414.54,97.34 845.63,217.88 1248.89,359.82 430.87,151.64 825.82,326.49 1187.21,520.37 380.36,204.06 726.09,430.79 1039.62,675.03 311.74,242.86 590.71,502.78 831.09,779.59 234.51,270.04 432.66,556.35 589.22,858.82 146.33,282.66 256.08,580.01 336.18,873.51 93.25,341.72 145.72,675.2 168.75,972.76 20.38,263.25 18.37,500.49 1.16,700.21z"/>
    <path class="fil2" d="M48765.25 26064.76c352.06,260.16 374.29,384.28 -171.73,425.65 -70.75,5.32 -218.04,7.61 -471.91,11.45l-2.87 0.88 0 -0.85c-480.66,7.33 -1362.61,21.07 -2333.96,175.78 -465.62,74.14 -954.72,181.55 -1434.08,308.37 -515.57,136.43 -1019.23,295.72 -1469.38,460.55 -436.11,159.7 -816.64,322.22 -1128.65,465.4 -309.18,141.89 -562.33,270.37 -731.05,355.93 -424.39,215.31 -424.5,215.31 -957.78,-2.18l-1766.81 -720.54c-181.6,-74.06 -327.29,-133.53 -438.09,-184.03 -21.52,-12.58 -37.68,-22.15 -51.39,-32.8 -27.2,-21.13 -44.71,-46.42 -56.57,-76.73 -11.86,-30.32 -18.1,-65.68 -9.02,-109.95 9.07,-44.24 33.43,-97.39 84.37,-141.83 28.94,-25.24 66.45,-47.66 101.53,-69.28 78.51,-35.61 170.52,-75.55 276.05,-121.31l3.89 -1.91c358.74,-155.29 1071.12,-463.83 1854.27,-704.98 394.65,-121.5 809.44,-226.48 1242.65,-314.22 431.56,-87.38 876.08,-156.84 1331.8,-207.59 462.76,-51.55 944.24,-84.73 1433.14,-97.59 474.95,-12.46 951.63,-5.49 1419.18,22.7 412.34,24.88 823.59,66.86 1202.8,115.3 491.52,62.75 917.87,134.6 1222.32,194.1 229.71,44.88 399.68,85.01 524.82,119.46l0.85 0c188.12,51.85 281.68,97.75 325.62,130.22zm-3048.88 181.9c462.43,-73.64 904.3,-116.26 1294.51,-141.52 -120.18,-17.71 -245.26,-35.01 -373.96,-51.44 -364.43,-46.54 -764.57,-87.19 -1173.73,-111.88 -460.19,-27.75 -924.68,-34.75 -1383.27,-22.7 -469.37,12.33 -938.33,44.96 -1395.51,95.88 -450.04,50.11 -881.93,117.25 -1294.18,200.74 -414.82,84.02 -815.34,185.58 -1199.9,303.96 -686.01,211.26 -1314.84,474.65 -1689.71,636.2l1727.44 704.49c350.03,142.74 350.08,142.76 596.84,17.57 166.87,-84.63 417.18,-211.67 746.44,-362.77 326.44,-149.8 719.63,-318.03 1159.43,-479.08 459.86,-168.4 976.87,-331.77 1508.77,-472.52 489.82,-129.58 993.17,-239.89 1476.83,-316.93z"/>
    <path class="fil3" d="M34462.91 24930.14c279.49,116.24 690.86,275.44 1100.19,430.82 455.74,173 842.98,317.14 1100.63,413.02 462.78,172.25 462.83,172.25 742.82,38.92 365.53,-174.02 1096.05,-521.92 1849.94,-790.79 374.77,-133.64 755.74,-247.31 1150.64,-343.44 394.1,-95.93 797.63,-173.24 1218.24,-234.39 403.76,-58.67 823.78,-102.97 1244.45,-134.74 452.3,-34.12 914.44,-54.01 1364.07,-61.9 424.44,-7.45 831.28,-3.72 1220.81,6.18 386.54,9.85 748.51,25.29 1091.88,41.92 -206.34,-50.78 -420.61,-100.62 -637.1,-146.79 -442.87,-94.44 -892.22,-173.25 -1370.64,-236.16 -480.74,-63.25 -996.06,-111.44 -1569.53,-144.51 -593.72,-34.23 -1243.92,-52.18 -1901.74,-50.47 -619.12,1.6 -1252.56,20.82 -1860.42,60.35 -597.11,38.83 -1162.75,97.31 -1681.63,168.88 -559.68,77.21 -1067.51,170.02 -1503.61,270.15 -418.19,96.04 -767.52,198.12 -1050.74,292.62 -281.84,94.03 -500.93,181.61 -657.07,248.16 -47,20.06 -87.69,37.93 -122.85,53.93 69.04,32.13 157.93,70.94 271.66,118.24zm946.22 839.59c-417.88,-158.6 -835.7,-320.26 -1113.87,-435.94 -293.78,-122.16 -449.87,-201.24 -532.79,-258.81 -203.61,-141.36 -183.92,-251.36 -134.63,-366.6 27.56,-64.21 69.59,-121.69 174.35,-187.01 66.04,-41.21 169.88,-92.43 340.84,-165.33 162.16,-69.12 390.99,-160.5 689.62,-260.13 297.23,-99.19 661.16,-205.71 1091.78,-304.6 445.95,-102.38 966.91,-197.54 1542.94,-276.98 531.24,-73.26 1107.5,-132.95 1712.42,-172.31 607.09,-39.5 1250.51,-58.72 1887.78,-60.35 673.15,-1.74 1331.27,16.22 1925.68,50.48 581.36,33.54 1107.5,82.88 1602.03,147.92 496.84,65.34 956.98,145.77 1404.84,241.29 277.61,59.22 2781.32,597.28 2879.51,902.12 17.74,54.97 11.12,107.74 -21.04,139.9 -32.17,32.16 -89.87,43.72 -160.2,53.35 -183.13,25.07 -356.48,17.12 -539.93,6.39l-5.96 -0.35 -3.53 -0.2 -2.46 -0.16 -5.96 -0.36 -5.98 -0.36 -2.92 -0.19 -3.07 -0.17 -5.98 -0.36c-346.22,-21.24 -939.11,-57.07 -1571.03,-87.85 -357.19,-17.4 -728.54,-33.54 -1107.13,-43.16 -385.28,-9.82 -786.69,-13.49 -1203.71,-6.18 -428.44,7.53 -880.77,27.36 -1338.42,61.89 -413.33,31.2 -823.76,74.42 -1215.37,131.32 -410.87,59.75 -800.87,134.25 -1177.2,225.85 -375.57,91.41 -742.36,201.1 -1107.89,331.46 -726.41,259.08 -1446.71,602.1 -1806.96,773.61 -445.63,212.22 -445.68,212.22 -1083.42,-25.16 -292.6,-108.86 -730.8,-271.99 -1102.34,-413.02z"/>
    <path class="fil4" d="M31863.8 23221.21l5.51 2.37c655.72,283.11 655.81,283.11 1025,156.34 220.33,-75.63 550.8,-189.14 975.13,-319.27 411.01,-126.05 893.32,-261.51 1404.56,-376.64 491,-110.58 1004.81,-201.85 1519.12,-275.06 562.96,-80.12 1128.81,-139.4 1668.11,-179.23 512.21,-37.81 1006.05,-58.11 1519.06,-59.85 510.64,-1.71 1029.88,15.2 1594.44,51.74 529.56,34.29 1103.2,85.87 1684.14,147.49 659.69,70.03 1329.1,153.08 1954.06,238.42 577.25,78.83 1126.37,161.36 1596.21,234.9 198.62,31.08 375.92,59.38 532.65,84.7 -245.76,-142.96 -544.45,-306.39 -895.5,-478.28 -410.15,-200.83 -894.14,-414.38 -1439.65,-625.58 -476.07,-184.33 -1003.26,-367.78 -1574.36,-540.37 -632.74,-191.23 -1307.77,-365.44 -2006.66,-509.67 -645.6,-133.25 -1318.04,-242.73 -2004.32,-318.69 -695.69,-77.01 -1400.18,-119.16 -2096.94,-131.32 -740.6,-12.94 -1479.67,7.81 -2196.3,56.44 -675.47,45.81 -1328.98,116.75 -1958.67,209.21 -658.92,96.73 -1289.27,216.69 -1889.27,355.76 -519.3,120.34 -1019.62,256.08 -1459.56,387.04 -549.59,163.62 -1000.12,318.63 -1273.58,426.51 -17.59,6.95 2782.26,1232.25 3316.82,1463.04zm-172.78 401.93c-730.75,-315.49 -2183.22,-942.61 -2966.57,-1287.11 -422.54,-185.8 -655.97,-293.4 -742.47,-422.35 -179.7,-267.77 -16.99,-395.67 405.91,-562.57 283.71,-111.94 747.1,-271.53 1307.83,-438.49 444.46,-132.31 953.36,-270.22 1486.92,-393.88 613.91,-142.29 1255.84,-264.57 1923.48,-362.6 638.73,-93.81 1303.61,-165.91 1992.87,-212.63 721.34,-48.93 1472.14,-69.73 2232.21,-56.44 716.35,12.53 1434.98,55.22 2137.98,133.04 695.5,76.98 1381.48,188.85 2043.65,325.53 723,149.22 1410.39,326.13 2046,518.22 570.85,172.5 1109.6,360.42 1605.2,552.34 554.82,214.81 1050.76,433.79 1473.85,640.97 719.05,352.06 1394.52,764.5 2055.73,1210.71 22.54,20.24 45.38,41.15 61.24,63.8 29.01,41.43 34.61,88.81 25.87,124.86 -8.72,36.08 -31.8,60.79 -64.79,73.15 -32.99,12.39 -75.85,12.39 -153.58,8.75 -280.19,-13.02 -444.44,-40.99 -726.83,-87.8 -264.55,-43.83 -661.76,-109.72 -1093.07,-177.22 -454.76,-71.19 -996.12,-152.39 -1587.66,-233.18 -620.06,-84.68 -1284.91,-167.15 -1941.24,-236.72l-0.85 0c-573.53,-60.82 -1140.6,-111.79 -1665.33,-145.77 -563.65,-36.46 -1074.01,-53.37 -1567.08,-51.75 -490.72,1.66 -975.08,21.96 -1488.28,59.86 -530.38,39.17 -1085.9,97.31 -1637.33,175.81 -507.71,72.27 -1010.38,161.36 -1484.91,268.21 -497.87,112.13 -969.45,244.61 -1372.07,368.09 -389.36,119.41 -732.68,237.33 -961.45,315.85 -529.03,181.69 -529.09,181.66 -1339.72,-168.31l-5.51 -2.37z"/>
    <g>
     <path class="fil5" d="M27914.54 10122.3l-253.65 356.92 -356.94 -253.62 253.65 -356.92 356.94 253.62zm-1427.79 -1014.52l-253.64 356.92 -356.92 -253.62 253.65 -356.92 356.91 253.62zm-1427.73 -1014.49l-253.65 356.92 -356.92 -253.62 253.65 -356.92 356.92 253.62z"/>
     <path class="fil6" d="M31398.67 9357.65l-476.79 -511.96 -320.46 298.45 476.79 511.96 320.46 -298.45zm-1372.1 -1473.27l-320.45 298.45 -596.84 -640.86 320.46 -298.44 596.83 640.85zm-1492.11 -1602.14l-320.45 298.45 -596.84 -640.86 320.46 -298.44 596.83 640.85zm-1492.11 -1602.13l-320.45 298.44 -596.84 -640.85 320.46 -298.45 596.83 640.86z"/>
     <path class="fil7" d="M33000.78 6584.47l-378.54 220.05 -220.09 -378.54 378.55 -220.06 220.08 378.55zm-880.27 -1514.23l-378.55 220.05 -220.05 -378.54 378.54 -220.06 220.06 378.55zm-880.25 -1514.21l-378.54 220.06 -220.06 -378.55 378.55 -220.05 220.05 378.54z"/>
     <path class="fil8" d="M35977.19 7009.19l-131.95 -596.18 -427.53 94.61 131.95 596.17 427.53 -94.6zm-415.83 -1878.77l-427.53 94.61 -189.22 -855.06 427.53 -94.61 189.22 855.06zm-473.07 -2137.65l-427.53 94.61 -189.22 -855.07 427.53 -94.6 189.22 855.06zm-473.07 -2137.66l-427.53 94.61 -189.22 -855.03 427.53 -94.61 189.22 855.03z"/>
     <path class="fil9" d="M38588.25 5756.05l-437.85 -2.48 2.51 -437.88 437.85 2.49 -2.51 437.87zm10.04 -1751.5l-437.85 -2.48 2.48 -437.85 437.85 2.49 -2.48 437.84zm9.98 -1751.44l-437.84 -2.48 2.48 -437.85 437.85 2.49 -2.49 437.84z"/>
     <path class="fil10" d="M41105.27 7120.26l228.22 -696.07 -416.11 -136.43 -228.22 696.08 416.11 136.42zm637.47 -1944.33l-416.12 -136.42 272.82 -832.17 416.12 136.43 -272.82 832.16zm682.03 -2080.42l-416.11 -136.42 272.82 -832.17 416.11 136.43 -272.82 832.16zm682.04 -2080.42l-416.11 -136.42 272.79 -832.17 416.11 136.43 -272.79 832.16z"/>
     <path class="fil11" d="M43825.5 7360.39l-380.47 -216.68 216.71 -380.51 380.48 216.69 -216.72 380.5zm866.87 -1521.95l-380.48 -216.69 216.72 -380.47 380.47 216.69 -216.71 380.47zm866.86 -1521.93l-380.47 -216.69 216.69 -380.47 380.47 216.69 -216.69 380.47z"/>
     <path class="fil12" d="M45573 9734.85l493.86 -457.46 -297.56 -321.23 -493.86 457.46 297.56 321.23zm1457.6 -1350.15l-297.56 -321.22 642.48 -595.1 297.56 321.23 -642.48 595.09zm1606.19 -1487.75l-297.56 -321.23 642.48 -595.09 297.57 321.23 -642.49 595.09zm1606.2 -1487.75l-297.57 -321.23 642.46 -595.09 297.56 321.22 -642.45 595.1z"/>
     <path class="fil13" d="M48243.47 10862.81l-218.02 -379.76 379.73 -218.01 218.02 379.76 -379.73 218.01zm1518.94 -872.08l-218.01 -379.76 379.73 -218.01 218.01 379.76 -379.73 218.01zm1518.95 -872.05l-218.01 -379.76 379.73 -218.01 218.01 379.75 -379.73 218.02z"/>
     <path class="fil14" d="M47764.44 14372.48l670.86 -147.35 -93.94 -427.69 -670.87 147.34 93.95 427.7zm1953.92 -429.1l-93.94 -427.7 855.36 -187.84 93.95 427.7 -855.37 187.84zm2138.4 -469.6l-93.94 -427.69 855.36 -187.84 93.95 427.69 -855.37 187.84zm2138.4 -469.59l-93.95 -427.7 855.37 -187.84 93.95 427.7 -855.37 187.84z"/>
     <path class="fil15" d="M48899.99 16611.89l-7.45 -437.8 437.82 -7.44 7.45 437.79 -437.82 7.45zm1751.27 -29.77l-7.44 -437.79 437.79 -7.42 7.45 437.79 -437.8 7.42zm1751.23 -29.7l-7.45 -437.79 437.79 -7.42 7.45 437.79 -437.79 7.42z"/>
     <path class="fil16" d="M53675.75 19785.1l-724.73 -225.05 -129.86 418.16 724.74 225.04 129.85 -418.15zm-1979.27 -614.59l-129.86 418.15 -836.36 -259.69 129.86 -418.16 836.36 259.7zm-2090.9 -649.22l-129.86 418.16 -836.33 -259.69 129.86 -418.16 836.33 259.69z"/>
    </g>
   </g>
   <g>
    <path class="fil17" d="M2745.45 33734.33l-2745.22 5717.93 1002.9 0 161.47 -300.04c144.51,-265.76 764.95,-634.37 1920.8,-634.37l1929.32 0 416.45 934.41 1036.88 0 -3051.19 -6506.6 -1019.86 0 348.45 788.67zm679.94 3840.52c-866.93,0 -1385.37,162.9 -1614.83,360.06l1402.33 -3060.43 1385.36 2700.37 -1172.86 0zm8907.92 1877.41l0 -934.41 -3518.64 0 0 -5460.76 -926.39 0 0 6395.17 4445.03 0zm2261.61 -2563.2c382.46,-205.74 790.43,-248.6 1198.38,-248.6l1385.37 0 0 -951.57 -1385.37 0c-416.47,0 -815.92,25.73 -1198.38,248.6l0 -1937.4 3535.62 0 0 -943 -4462.01 0 0 6395.17 926.39 0 0 -2563.2zm6349.68 -3154.73l-2745.18 5717.93 1002.87 0 161.5 -300.04c144.48,-265.76 764.92,-634.37 1920.8,-634.37l1929.29 0 416.45 934.41 1036.88 0 -3051.16 -6506.6 -1019.9 0 348.45 788.67zm679.94 3840.52c-866.89,0 -1385.36,162.9 -1614.82,360.06l1402.35 -3060.43 1385.34 2700.37 -1172.87 0zm7922.89 -685.79c382.46,-205.74 790.44,-248.6 1198.39,-248.6l1385.36 0 0 -951.57 -1385.36 0c-416.47,0 -815.93,25.73 -1198.39,248.6l0 -1937.4 3535.63 0 0 -943 -4462.02 0 0 6395.17 926.39 0 0 -2563.2zm10361.31 -677.23c0,1388.76 -1130.39,2451.76 -2490.27,2451.76 -1325.84,0 -2507.23,-1011.56 -2507.23,-2391.77 0,-1440.2 1087.88,-2460.32 2498.73,-2460.32 1351.36,0 2498.77,994.41 2498.77,2400.33zm917.89 51.44c0,-1911.7 -1529.87,-3394.76 -3408.16,-3394.76 -1818.8,0 -3416.63,1405.91 -3416.63,3291.88 0,1928.82 1487.33,3437.62 3408.13,3437.62 1835.82,0 3416.66,-1448.78 3416.66,-3334.74zm7157.12 -51.44c0,1388.76 -1130.37,2451.76 -2490.25,2451.76 -1325.84,0 -2507.23,-1011.56 -2507.23,-2391.77 0,-1440.2 1087.89,-2460.32 2498.74,-2460.32 1351.36,0 2498.74,994.41 2498.74,2400.33zm917.92 51.44c0,-1911.7 -1529.87,-3394.76 -3408.17,-3394.76 -1818.79,0 -3416.63,1405.91 -3416.63,3291.88 0,1928.82 1487.34,3437.62 3408.14,3437.62 1835.82,0 3416.66,-1448.78 3416.66,-3334.74zm2941.55 -2263.18l1419.37 0c1308.83,0 2048.29,1063 2048.29,2297.46 0,1191.57 -798.93,2220.3 -2031.32,2220.3l-1436.34 0 0 -4517.76zm-1410.85 0l501.45 0 0 5452.17 2345.74 0c841.43,0 1444.86,-222.89 2022.8,-848.69 586.43,-625.79 943.41,-1508.77 943.41,-2374.61 0,-1731.67 -1266.38,-3171.87 -2991.7,-3171.87l-3229.65 0 407.95 943zm11933.62 5452.17l0 -934.41 -3518.63 0 0 -5460.76 -926.42 0 0 6395.17 4445.05 0zm2244.6 0l0 -6395.17 -909.38 0 0 6395.17 909.38 0zm2287.15 -5495.04l0 5495.04 909.4 0 0 -4397.74 3637.62 4397.74 917.92 0 0 -6395.17 -934.91 0 0 4886.4 -4071.09 -4886.4 -1198.38 0 739.44 900.13zm8491.48 2931.84c382.43,-205.74 790.4,-248.6 1198.35,-248.6l1385.37 0 0 -951.57 -1385.37 0c-416.44,0 -815.92,25.73 -1198.35,248.6l0 -1937.4 3535.62 0 0 -943 -4462.04 0 0 6395.17 4835.98 0 0 -934.41 -3909.56 0 0 -1628.79z"/>
    <path class="fil17" d="M9240.11 44081.79l405.1 0 0 1950.89 -405.1 0 0 -801.94 -824.97 0 0 801.94 -405.11 0 0 -1950.89 405.11 0 0 796.39 824.97 0 0 -796.39zm1233.58 1950.89l0 -1950.89 405.1 0 0 1950.89 -405.1 0zm2076.03 27.19c-139.65,0 -269.62,-23.96 -389.44,-70.97 -120.29,-47.47 -224,-113.83 -310.63,-199.11 -87.11,-85.73 -154.85,-190.79 -204.17,-316.16 -48.88,-124.89 -73.29,-262.22 -73.29,-411.56 0,-151.62 25.35,-290.36 75.58,-416.63 50.23,-126.74 119.84,-232.74 207.86,-318.94 88.02,-85.73 193.58,-152.53 316.62,-200.47 123.05,-47.47 255.33,-71.44 397.74,-71.44 188.03,0 357.17,39.64 506.97,119.38 149.78,79.71 267.31,193.1 351.65,339.65l-354.87 188.97c-50.7,-98.17 -119.38,-171.92 -206.02,-221.21 -87.11,-49.79 -186.21,-74.23 -297.73,-74.23 -173.74,0 -315.71,57.15 -425.84,171.45 -110.61,114.31 -165.47,271.91 -165.47,473.79 0,199.09 54.86,357.64 164.53,476.55 109.69,118.91 257.18,178.35 441.54,178.35 86.64,0 165.91,-13.82 237.79,-41.93 71.91,-27.67 135.04,-73.29 188.97,-135.51 53.92,-62.67 89.86,-140.1 107.85,-231.81l-533.23 0 0 -325.39 916.68 0 0 1060.03 -318.47 0 0 -270.06c-134.11,198.15 -345.66,297.25 -634.62,297.25zm2926.82 -1978.08l405.11 0 0 1950.89 -405.11 0 0 -801.94 -824.97 0 0 801.94 -405.1 0 0 -1950.89 405.1 0 0 796.39 824.97 0 0 -796.39zm1178.25 1394.6l0 -325.36 967.85 0 0 325.36 -967.85 0zm3671.63 637.41l-337.36 128.12 -249.82 -280.68c-142.41,65.45 -299.1,98.63 -470.09,98.63 -192.63,0 -365,-41.01 -517.56,-122.6 -152.56,-81.12 -272.85,-198.62 -360.42,-351.65 -88.02,-153 -131.79,-329.53 -131.79,-529.09 0,-200.94 43.77,-377.44 131.79,-530 87.57,-152.56 207.39,-269.62 359.48,-350.27 152.09,-81.12 324.93,-121.67 518.5,-121.67 193.58,0 366.41,40.55 518.5,121.67 152.09,80.65 272.38,197.71 359.93,350.27 88.04,152.56 131.81,329.06 131.81,530 0,286.22 -86.63,520.81 -259.47,703.3l306.5 353.97zm-1663.31 -1057.27c0,202.35 56.68,361.33 170.04,477.01 113.4,115.68 259.03,173.75 436,173.75 177.44,0 323.08,-58.07 436.47,-173.75 113.36,-115.68 170.05,-274.66 170.05,-477.01 0,-192.64 -57.15,-345.64 -171.46,-459.03 -114.27,-113.37 -259.47,-170.05 -435.06,-170.05 -175.12,0 -320.31,56.68 -434.59,170.05 -114.3,113.39 -171.45,266.39 -171.45,459.03zm3054.5 1003.34c-108.79,0 -208.8,-14.28 -300.52,-42.86 -91.24,-28.11 -171.42,-70.97 -241.04,-127.65 -69.12,-56.71 -123.51,-130.91 -162.68,-222.62 -39.17,-91.71 -58.53,-197.71 -58.53,-317.09l0 -1267.86 405.1 0 0 1212.09c0,140.59 32.74,243.83 97.73,309.25 65.42,65.93 152.09,98.64 259.94,98.64 108.29,0 195.39,-33.18 261.32,-99.08 66.36,-66.39 99.07,-169.16 99.07,-308.81l0 -1212.09 405.11 0 0 1267.86c0,119.38 -19.36,225.38 -58.53,317.09 -39.17,91.71 -93.56,165.91 -163.62,222.62 -69.59,56.68 -150.24,99.54 -241.49,127.65 -91.24,28.58 -191.72,42.86 -301.86,42.86zm2817.59 -27.19l-141.94 -402.35 -819.45 0 -141.94 402.35 -414.35 0 718.53 -1950.89 495.44 0 718.06 1950.89 -414.35 0zm-842.48 -741.09l581.63 0 -289.89 -827.73 -291.74 827.73zm2278.38 383.45l611.59 0 0 357.64 -1016.7 0 0 -1950.89 405.11 0 0 1593.25zm1244.17 357.64l0 -1950.89 405.1 0 0 1950.89 -405.1 0zm2363.61 -1950.89l0 356.25 -463.17 0 0 1594.64 -400.97 0 0 -1594.64 -465.95 0 0 -356.25 1330.09 0zm2093.55 0l-641.55 1016.69 0 934.2 -406.48 0 0 -924.99 -645.24 -1025.9 447.99 0 398.66 664.1 399.59 -664.1 447.03 0zm456.96 1978.08c-60.35,0 -112.46,-22.12 -155.76,-65.45 -43.8,-43.77 -65.92,-95.85 -65.92,-156.23 0,-61.29 22.12,-113.83 65.92,-158.07 43.3,-43.8 95.41,-65.93 155.76,-65.93 61.32,0 113.86,22.13 158.1,65.93 43.78,44.24 65.9,96.78 65.9,158.07 0,60.38 -22.12,112.46 -65.9,156.23 -44.24,43.33 -96.78,65.45 -158.1,65.45zm3094.83 -27.19l-507.41 -858.62 -117.53 0 0 858.62 -405.11 0 0 -1950.89 707.44 0c106.91,0 201.85,14.73 283.44,45.15 82.03,29.95 147.48,71.91 196.8,125.36 48.85,53.46 85.73,115.21 110.61,184.36 24.41,69.6 36.87,145.64 36.87,228.14 0,130.41 -35.49,237.35 -106.46,320.76 -70.97,83.41 -173.31,139.18 -306.5,168.23l587.18 878.89 -479.33 0zm-624.94 -1614.91l0 465.93 238.72 0c202.79,0 303.72,-77.43 303.72,-232.28 0,-72.82 -24.41,-129.97 -74.2,-171.45 -49.32,-41.46 -125.81,-62.2 -229.52,-62.2l-238.72 0zm2856.29 20.27l-723.58 0 0 442.9 641.08 0 0 352.59 -641.08 0 0 441.51 723.58 0 0 357.64 -1131.44 0 0 -1950.89 1131.44 0 0 356.25zm1145.53 1237l611.59 0 0 357.64 -1016.69 0 0 -1950.89 405.1 0 0 1593.25zm1244.17 357.64l0 -1950.89 405.11 0 0 1950.89 -405.11 0zm2537.82 0l-141.94 -402.35 -819.45 0 -141.94 402.35 -414.34 0 718.52 -1950.89 495.44 0 718.06 1950.89 -414.35 0zm-842.48 -741.09l581.64 0 -289.9 -827.73 -291.74 827.73zm2920.84 -288.99c245.18,67.31 367.31,228.61 367.31,483 0,169.61 -51.6,302.81 -155.31,400.53 -103.25,97.7 -255.34,146.55 -456.28,146.55l-803.29 0 0 -1950.89 631.87 0c207.83,0 366.85,47 477.45,141.03 110.17,94 165.47,225.35 165.47,393.57 0,87.11 -19.36,164.53 -57.62,231.37 -38.26,67.3 -94.94,118.44 -169.6,154.84zm-411.56 -584.83l-245.66 0 0 459.03 263.17 0c82.97,0 144.73,-21.65 186.18,-64.52 41.49,-43.33 62.23,-100.01 62.23,-170.54 0,-67.27 -22.59,-121.67 -67.74,-162.68 -44.72,-40.55 -111.08,-61.29 -198.18,-61.29zm91.71 1267.86c101.86,0 176.06,-23.03 223.53,-68.68 47,-46.06 70.97,-104.59 70.97,-175.59 0,-72.82 -23.97,-133.19 -71.91,-181.11 -47.47,-47.47 -124.43,-71.43 -230.9,-71.43l-329.06 0 0 496.81 337.37 0zm1776.48 -10.59l611.59 0 0 357.64 -1016.69 0 0 -1950.89 405.1 0 0 1593.25zm2375.61 -1237l-723.57 0 0 442.9 641.07 0 0 352.59 -641.07 0 0 441.51 723.57 0 0 357.64 -1131.44 0 0 -1950.89 1131.44 0 0 356.25zm932.13 1621.83c-60.35,0 -112.45,-22.12 -155.76,-65.45 -43.8,-43.77 -65.92,-95.85 -65.92,-156.23 0,-61.29 22.12,-113.83 65.92,-158.07 43.31,-43.8 95.41,-65.93 155.76,-65.93 61.32,0 113.86,22.13 158.1,65.93 43.78,44.24 65.9,96.78 65.9,158.07 0,60.38 -22.12,112.46 -65.9,156.23 -44.24,43.33 -96.78,65.45 -158.1,65.45zm2469.89 -384.83l611.59 0 0 357.64 -1016.7 0 0 -1950.89 405.11 0 0 1593.25zm2069.14 384.83c-190.82,0 -361.8,-41.01 -512.52,-122.6 -150.68,-81.12 -269.15,-198.62 -355.78,-351.65 -86.17,-153 -129.51,-329.53 -129.51,-529.09 0,-200.94 43.34,-377.44 129.51,-530 86.63,-152.56 205.1,-269.62 355.78,-350.27 150.72,-81.12 321.7,-121.67 512.52,-121.67 190.79,0 361.33,40.55 511.57,121.67 150.24,80.65 268.68,197.71 355.35,350.27 86.17,152.56 129.5,329.06 129.5,530 0,199.56 -43.33,376.09 -129.5,529.09 -86.67,153.03 -205.11,270.53 -355.82,351.65 -150.71,81.59 -321.22,122.6 -511.1,122.6zm-426.79 -542.46c111.54,113.83 253.95,170.98 426.79,170.98 172.83,0 314.77,-57.15 426.75,-170.98 111.55,-113.84 167.32,-267.31 167.32,-460.88 0,-192.64 -55.77,-345.64 -167.32,-459.03 -111.98,-113.37 -253.92,-170.05 -426.75,-170.05 -172.84,0 -315.25,56.68 -426.79,170.05 -111.52,113.39 -167.29,266.39 -167.29,459.03 0,193.57 55.77,347.04 167.29,460.88zm3452.24 -1435.62l403.26 0 0 1950.89 -468.24 0 -864.14 -1394.61 0 1394.61 -403.73 0 0 -1950.89 463.17 0 869.68 1386.3 0 -1386.3zm2075.6 1978.08c-139.66,0 -269.62,-23.96 -389.44,-70.97 -120.29,-47.47 -224,-113.83 -310.64,-199.11 -87.11,-85.73 -154.85,-190.79 -204.17,-316.16 -48.87,-124.89 -73.28,-262.22 -73.28,-411.56 0,-151.62 25.35,-290.36 75.57,-416.63 50.23,-126.74 119.85,-232.74 207.87,-318.94 88.01,-85.73 193.57,-152.53 316.62,-200.47 123.04,-47.47 255.33,-71.44 397.74,-71.44 188.03,0 357.17,39.64 506.97,119.38 149.77,79.71 267.3,193.1 351.65,339.65l-354.88 188.97c-50.7,-98.17 -119.38,-171.92 -206.01,-221.21 -87.11,-49.79 -186.21,-74.23 -297.73,-74.23 -173.74,0 -315.71,57.15 -425.85,171.45 -110.61,114.31 -165.47,271.91 -165.47,473.79 0,199.09 54.86,357.64 164.53,476.55 109.7,118.91 257.18,178.35 441.55,178.35 86.63,0 165.9,-13.82 237.79,-41.93 71.9,-27.67 135.04,-73.29 188.96,-135.51 53.93,-62.67 89.87,-140.1 107.85,-231.81l-533.23 0 0 -325.39 916.69 0 0 1060.03 -318.47 0 0 -270.06c-134.11,198.15 -345.67,297.25 -634.62,297.25zm1641.41 -583.48l0 -325.36 967.85 0 0 325.36 -967.85 0zm2872.46 -1394.6l0 356.25 -463.17 0 0 1594.64 -400.97 0 0 -1594.64 -465.95 0 0 -356.25 1330.09 0zm1761.26 356.25l-723.58 0 0 442.9 641.08 0 0 352.59 -641.08 0 0 441.51 723.58 0 0 357.64 -1131.44 0 0 -1950.89 1131.44 0 0 356.25zm1770.47 1594.64l-507.41 -858.62 -117.53 0 0 858.62 -405.11 0 0 -1950.89 707.44 0c106.91,0 201.85,14.73 283.44,45.15 82.03,29.95 147.49,71.91 196.81,125.36 48.84,53.46 85.72,115.21 110.6,184.36 24.41,69.6 36.88,145.64 36.88,228.14 0,130.41 -35.5,237.35 -106.47,320.76 -70.97,83.41 -173.3,139.18 -306.5,168.23l587.18 878.89 -479.33 0zm-624.94 -1614.91l0 465.93 238.73 0c202.79,0 303.71,-77.43 303.71,-232.28 0,-72.82 -24.41,-129.97 -74.2,-171.45 -49.31,-41.46 -125.8,-62.2 -229.51,-62.2l-238.73 0zm3960.56 1614.91l-403.72 0 -128.12 -1470.21 -494.06 1470.21 -262.26 0 -494.06 -1470.21 -129.5 1470.21 -405.11 0 163.6 -1950.89 577.49 0 416.17 1224.55 421.24 -1224.55 577.94 0 160.39 1950.89zm817.83 27.19c-60.35,0 -112.46,-22.12 -155.76,-65.45 -43.8,-43.77 -65.92,-95.85 -65.92,-156.23 0,-61.29 22.12,-113.83 65.92,-158.07 43.3,-43.8 95.41,-65.93 155.76,-65.93 61.31,0 113.86,22.13 158.1,65.93 43.78,44.24 65.9,96.78 65.9,158.07 0,60.38 -22.12,112.46 -65.9,156.23 -44.24,43.33 -96.79,65.45 -158.1,65.45z"/>
   </g>
  </g>
 </g>
</svg>
